<svg id="bold" enable-background="new 0 0 24 24" height="512" viewBox="0 0 24 24" width="512" xmlns="http://www.w3.org/2000/svg"><path d="m6.75 13c-.414 0-.75-.336-.75-.75v-5.5c0-.414.336-.75.75-.75s.75.336.75.75v5.5c0 .414-.336.75-.75.75z"/><path d="m11.75 13h-2.5c-.414 0-.75-.336-.75-.75v-1.75c0-.965.785-1.75 1.75-1.75h.5c.138 0 .25-.112.25-.25v-.75c0-.138-.112-.25-.25-.25h-1.5c-.414 0-.75-.336-.75-.75s.336-.75.75-.75h1.5c.965 0 1.75.785 1.75 1.75v.75c0 .965-.785 1.75-1.75 1.75h-.5c-.138 0-.25.112-.25.25v1h1.75c.414 0 .75.336.75.75s-.336.75-.75.75z"/><path d="m15.75 10.25h-1.5c-.414 0-.75-.336-.75-.75s.336-.75.75-.75h1.5c.138 0 .25-.112.25-.25v-.75c0-.138-.112-.25-.25-.25h-1.5c-.414 0-.75-.336-.75-.75s.336-.75.75-.75h1.5c.965 0 1.75.785 1.75 1.75v.75c0 .965-.785 1.75-1.75 1.75z"/><path d="m15.75 13h-1.5c-.414 0-.75-.336-.75-.75s.336-.75.75-.75h1.5c.138 0 .25-.112.25-.25v-.75c0-.138-.112-.25-.25-.25h-1.5c-.414 0-.75-.336-.75-.75s.336-.75.75-.75h1.5c.965 0 1.75.785 1.75 1.75v.75c0 .965-.785 1.75-1.75 1.75z"/><path d="m21 0h-18c-1.654 0-3 1.346-3 3v18c0 1.654 1.346 3 3 3h18c1.654 0 3-1.346 3-3v-18c0-1.654-1.346-3-3-3zm-1 21h-11c0 .552-.448 1-1 1s-1-.448-1-1h-3c-.552 0-1-.448-1-1s.448-1 1-1h3c0-.552.448-1 1-1s1 .448 1 1h11c.552 0 1 .448 1 1s-.448 1-1 1zm2-5h-20v-13c0-.551.449-1 1-1h18c.551 0 1 .449 1 1z"/></svg>