<svg width="1024" height="1024" viewBox="0 0 1024 1024" fill="none" xmlns="http://www.w3.org/2000/svg">
<rect width="1024" height="1024" rx="512" fill="white"/>
<path d="M862 162H162V862H862V162Z" fill="white"/>
<path d="M354.5 477C422.155 477 477 422.155 477 354.5C477 286.845 422.155 232 354.5 232C286.845 232 232 286.845 232 354.5C232 422.155 286.845 477 354.5 477Z" stroke="#3E3E3E" stroke-width="30"/>
<path d="M354.5 792C422.155 792 477 737.155 477 669.5C477 601.845 422.155 547 354.5 547C286.845 547 232 601.845 232 669.5C232 737.155 286.845 792 354.5 792Z" stroke="#3E3E3E" stroke-width="30"/>
<path d="M669.5 792C737.155 792 792 737.155 792 669.5C792 601.845 737.155 547 669.5 547C601.845 547 547 601.845 547 669.5C547 737.155 601.845 792 669.5 792Z" stroke="#3E3E3E" stroke-width="30"/>
<path d="M669.5 477C737.155 477 792 422.155 792 354.5C792 286.845 737.155 232 669.5 232C601.845 232 547 286.845 547 354.5C547 422.155 601.845 477 669.5 477Z" stroke="#3E3E3E" stroke-width="30"/>
<path d="M365 302C365 294.268 358.732 288 351 288C343.268 288 337 294.268 337 302V344C337 351.732 343.268 358 351 358C358.732 358 365 351.732 365 344V302Z" fill="#3E3E3E"/>
<path d="M365.034 398.377C365.034 391.692 358.758 386.272 351.017 386.272C343.276 386.272 337 391.692 337 398.377V422.589C337 429.274 343.276 434.694 351.017 434.694C358.758 434.694 365.034 429.274 365.034 422.589V398.377Z" fill="#3E3E3E"/>
<path d="M295.857 698.943C291.631 703.168 292.637 711.026 298.104 716.494C303.572 721.961 311.43 722.967 315.656 718.742L330.959 703.438C335.185 699.212 334.178 691.354 328.711 685.887C323.244 680.42 315.386 679.413 311.16 683.639L295.857 698.943Z" fill="#3E3E3E"/>
<path d="M295 344C287.268 344 281 350.268 281 358C281 365.732 287.268 372 295 372H407C414.732 372 421 365.732 421 358C421 350.268 414.732 344 407 344H295Z" fill="#3E3E3E"/>
<path d="M610 344C602.268 344 596 350.268 596 358C596 365.732 602.268 372 610 372H722C729.732 372 736 365.732 736 358C736 350.268 729.732 344 722 344H610Z" fill="#3E3E3E"/>
<path d="M610 673C602.268 673 596 679.268 596 687C596 694.732 602.268 701 610 701H666C673.732 701 680 694.732 680 687C680 679.268 673.732 673 666 673H610Z" fill="#3E3E3E"/>
<path d="M709.573 673.408C703.675 673.408 698.893 679.493 698.893 687C698.893 694.507 703.675 700.592 709.573 700.592H725.592C731.49 700.592 736.272 694.507 736.272 687C736.272 679.493 731.49 673.408 725.592 673.408H709.573Z" fill="#3E3E3E"/>
<path d="M610 631C602.268 631 596 637.268 596 645C596 652.732 602.268 659 610 659H722C729.732 659 736 652.732 736 645C736 637.268 729.732 631 722 631H610Z" fill="#3E3E3E"/>
<path d="M321.301 616.502C315.834 611.035 306.97 611.035 301.502 616.502C296.035 621.969 296.035 630.834 301.502 636.301L380.698 715.497C386.166 720.964 395.03 720.964 400.497 715.497C405.965 710.03 405.965 701.165 400.497 695.698L321.301 616.502Z" fill="#3E3E3E"/>
<path d="M351.78 645.421C346.312 650.888 346.312 659.753 351.78 665.22C357.247 670.687 366.111 670.687 371.579 665.22L400.497 636.301C405.965 630.834 405.965 621.97 400.497 616.502C395.03 611.035 386.166 611.035 380.698 616.502L351.78 645.421Z" fill="#3E3E3E"/>
<path d="M666 330C673.732 330 680 323.732 680 316C680 308.268 673.732 302 666 302C658.268 302 652 308.268 652 316C652 323.732 658.268 330 666 330Z" fill="#3E3E3E"/>
<path d="M666 414C673.732 414 680 407.732 680 400C680 392.268 673.732 386 666 386C658.268 386 652 392.268 652 400C652 407.732 658.268 414 666 414Z" fill="#3E3E3E"/>
</svg>
