<svg width="1024" height="1024" viewBox="0 0 1024 1024" fill="none" xmlns="http://www.w3.org/2000/svg">
<rect width="1024" height="1024" rx="512" fill="white"/>
<path d="M924 100H100V924H924V100Z" fill="white"/>
<path d="M326.6 470.8C406.239 470.8 470.8 406.239 470.8 326.6C470.8 246.961 406.239 182.4 326.6 182.4C246.961 182.4 182.4 246.961 182.4 326.6C182.4 406.239 246.961 470.8 326.6 470.8Z" stroke="#3E3E3E" stroke-width="30"/>
<path d="M326.6 841.6C406.239 841.6 470.8 777.039 470.8 697.4C470.8 617.761 406.239 553.2 326.6 553.2C246.961 553.2 182.4 617.761 182.4 697.4C182.4 777.039 246.961 841.6 326.6 841.6Z" stroke="#3E3E3E" stroke-width="30"/>
<path d="M697.4 841.6C777.039 841.6 841.6 777.039 841.6 697.4C841.6 617.761 777.039 553.2 697.4 553.2C617.76 553.2 553.2 617.761 553.2 697.4C553.2 777.039 617.76 841.6 697.4 841.6Z" stroke="#3E3E3E" stroke-width="30"/>
<path d="M697.4 470.8C777.039 470.8 841.6 406.239 841.6 326.6C841.6 246.961 777.039 182.4 697.4 182.4C617.76 182.4 553.2 246.961 553.2 326.6C553.2 406.239 617.76 470.8 697.4 470.8Z" stroke="#3E3E3E" stroke-width="30"/>
<path d="M338.96 264.8C338.96 255.698 331.582 248.32 322.48 248.32C313.378 248.32 306 255.698 306 264.8V314.24C306 323.342 313.378 330.72 322.48 330.72C331.582 330.72 338.96 323.342 338.96 314.24V264.8Z" fill="#3E3E3E"/>
<path d="M339 378.25C339 370.38 331.613 364 322.5 364C313.387 364 306 370.38 306 378.25V406.75C306 414.62 313.387 421 322.5 421C331.613 421 339 414.62 339 406.75V378.25Z" fill="#3E3E3E"/>
<path d="M257.568 732.058C252.594 737.032 253.778 746.282 260.214 752.718C266.65 759.154 275.9 760.339 280.875 755.364L298.889 737.35C303.863 732.376 302.679 723.126 296.243 716.69C289.807 710.254 280.557 709.069 275.582 714.044L257.568 732.058Z" fill="#3E3E3E"/>
<path d="M256.56 314.24C247.458 314.24 240.08 321.618 240.08 330.72C240.08 339.822 247.458 347.2 256.56 347.2H388.4C397.502 347.2 404.88 339.822 404.88 330.72C404.88 321.618 397.502 314.24 388.4 314.24H256.56Z" fill="#3E3E3E"/>
<path d="M627.36 314.24C618.258 314.24 610.88 321.618 610.88 330.72C610.88 339.822 618.258 347.2 627.36 347.2H759.2C768.302 347.2 775.68 339.822 775.68 330.72C775.68 321.618 768.302 314.24 759.2 314.24H627.36Z" fill="#3E3E3E"/>
<path d="M627.36 701.52C618.258 701.52 610.88 708.898 610.88 718C610.88 727.102 618.258 734.48 627.36 734.48H693.28C702.382 734.48 709.76 727.102 709.76 718C709.76 708.898 702.382 701.52 693.28 701.52H627.36Z" fill="#3E3E3E"/>
<path d="M744.571 702C737.628 702 732 709.163 732 718C732 726.837 737.628 734 744.571 734H763.429C770.372 734 776 726.837 776 718C776 709.163 770.372 702 763.429 702H744.571Z" fill="#3E3E3E"/>
<path d="M627.36 652.08C618.258 652.08 610.88 659.458 610.88 668.56C610.88 677.662 618.258 685.04 627.36 685.04H759.2C768.302 685.04 775.68 677.662 775.68 668.56C775.68 659.458 768.302 652.08 759.2 652.08H627.36Z" fill="#3E3E3E"/>
<path d="M287.521 635.014C281.085 628.578 270.65 628.578 264.214 635.014C257.778 641.45 257.778 651.884 264.214 658.32L357.439 751.545C363.875 757.981 374.31 757.981 380.745 751.545C387.181 745.109 387.181 734.675 380.745 728.239L287.521 635.014Z" fill="#3E3E3E"/>
<path d="M323.398 669.056C316.962 675.492 316.962 685.926 323.398 692.362C329.834 698.798 340.268 698.798 346.704 692.362L380.745 658.321C387.181 651.885 387.181 641.45 380.745 635.014C374.31 628.579 363.875 628.579 357.439 635.014L323.398 669.056Z" fill="#3E3E3E"/>
<path d="M693.28 297.76C702.382 297.76 709.76 290.382 709.76 281.28C709.76 272.178 702.382 264.8 693.28 264.8C684.178 264.8 676.8 272.178 676.8 281.28C676.8 290.382 684.178 297.76 693.28 297.76Z" fill="#3E3E3E"/>
<path d="M693.28 396.64C702.382 396.64 709.76 389.262 709.76 380.16C709.76 371.058 702.382 363.68 693.28 363.68C684.178 363.68 676.8 371.058 676.8 380.16C676.8 389.262 684.178 396.64 693.28 396.64Z" fill="#3E3E3E"/>
</svg>
