<svg width="824" height="824" viewBox="0 0 824 824" fill="none" xmlns="http://www.w3.org/2000/svg">
<path d="M824 0H0V824H824V0Z" fill="white"/>
<path d="M226.6 370.8C306.239 370.8 370.8 306.239 370.8 226.6C370.8 146.961 306.239 82.4 226.6 82.4C146.961 82.4 82.4 146.961 82.4 226.6C82.4 306.239 146.961 370.8 226.6 370.8Z" stroke="#F9DCC5" stroke-width="30"/>
<path d="M226.6 741.6C306.239 741.6 370.8 677.039 370.8 597.4C370.8 517.761 306.239 453.2 226.6 453.2C146.961 453.2 82.4 517.761 82.4 597.4C82.4 677.039 146.961 741.6 226.6 741.6Z" stroke="#F9DCC5" stroke-width="30"/>
<path d="M597.4 741.6C677.039 741.6 741.6 677.039 741.6 597.4C741.6 517.761 677.039 453.2 597.4 453.2C517.761 453.2 453.2 517.761 453.2 597.4C453.2 677.039 517.761 741.6 597.4 741.6Z" stroke="#D29BFD" stroke-width="30"/>
<path d="M597.4 370.8C677.039 370.8 741.6 306.239 741.6 226.6C741.6 146.961 677.039 82.4 597.4 82.4C517.761 82.4 453.2 146.961 453.2 226.6C453.2 306.239 517.761 370.8 597.4 370.8Z" stroke="#F9DCC5" stroke-width="30"/>
<path d="M238.96 164.8C238.96 155.698 231.582 148.32 222.48 148.32C213.378 148.32 206 155.698 206 164.8V214.24C206 223.342 213.378 230.72 222.48 230.72C231.582 230.72 238.96 223.342 238.96 214.24V164.8Z" fill="#D29BFD"/>
<path d="M238.96 271.92C238.96 262.818 231.582 255.44 222.48 255.44C213.378 255.44 206 262.818 206 271.92V304.88C206 313.982 213.378 321.36 222.48 321.36C231.582 321.36 238.96 313.982 238.96 304.88V271.92Z" fill="#D29BFD"/>
<path d="M160.214 629.412C153.779 635.848 153.779 646.282 160.214 652.718C166.65 659.154 177.085 659.154 183.521 652.718L206.827 629.412C213.263 622.976 213.263 612.542 206.827 606.106C200.391 599.67 189.956 599.67 183.521 606.106L160.214 629.412Z" fill="#D29BFD"/>
<path d="M156.56 214.24C147.458 214.24 140.08 221.618 140.08 230.72C140.08 239.822 147.458 247.2 156.56 247.2H288.4C297.502 247.2 304.88 239.822 304.88 230.72C304.88 221.618 297.502 214.24 288.4 214.24H156.56Z" fill="#D29BFD"/>
<path d="M527.36 214.24C518.258 214.24 510.88 221.618 510.88 230.72C510.88 239.822 518.258 247.2 527.36 247.2H659.2C668.302 247.2 675.68 239.822 675.68 230.72C675.68 221.618 668.302 214.24 659.2 214.24H527.36Z" fill="#D29BFD"/>
<path d="M527.36 601.52C518.258 601.52 510.88 608.898 510.88 618C510.88 627.102 518.258 634.48 527.36 634.48H593.28C602.382 634.48 609.76 627.102 609.76 618C609.76 608.898 602.382 601.52 593.28 601.52H527.36Z" fill="#F9DCC5"/>
<path d="M634.48 601.52C625.378 601.52 618 608.898 618 618C618 627.102 625.378 634.48 634.48 634.48H659.2C668.302 634.48 675.68 627.102 675.68 618C675.68 608.898 668.302 601.52 659.2 601.52H634.48Z" fill="#F9DCC5"/>
<path d="M527.36 552.08C518.258 552.08 510.88 559.458 510.88 568.56C510.88 577.662 518.258 585.04 527.36 585.04H659.2C668.302 585.04 675.68 577.662 675.68 568.56C675.68 559.458 668.302 552.08 659.2 552.08H527.36Z" fill="#F9DCC5"/>
<path d="M187.521 535.014C181.085 528.578 170.65 528.578 164.214 535.014C157.778 541.45 157.778 551.884 164.214 558.32L257.439 651.545C263.875 657.981 274.31 657.981 280.745 651.545C287.181 645.109 287.181 634.675 280.746 628.239L187.521 535.014Z" fill="#D29BFD"/>
<path d="M223.398 569.056C216.962 575.492 216.962 585.926 223.398 592.362C229.834 598.798 240.268 598.798 246.704 592.362L280.745 558.321C287.181 551.885 287.181 541.45 280.745 535.014C274.31 528.579 263.875 528.579 257.439 535.014L223.398 569.056Z" fill="#D29BFD"/>
<path d="M593.28 197.76C602.382 197.76 609.76 190.382 609.76 181.28C609.76 172.178 602.382 164.8 593.28 164.8C584.178 164.8 576.8 172.178 576.8 181.28C576.8 190.382 584.178 197.76 593.28 197.76Z" fill="#D29BFD"/>
<path d="M593.28 296.64C602.382 296.64 609.76 289.262 609.76 280.16C609.76 271.058 602.382 263.68 593.28 263.68C584.178 263.68 576.8 271.058 576.8 280.16C576.8 289.262 584.178 296.64 593.28 296.64Z" fill="#D29BFD"/>
</svg>
